# xmcd CD database file
#
# Track frame offsets:
#	150
#	19799
#	36536
#	56049
#	76492
#	97278
#	115835
#	135736
#	159052
#	173706
#	194062
#	214762
#	233482
#	250708
#	267854
#
# Disc length: 3848 seconds
#
# Revision: 0
# Processed by: cddbd v1.5.2PL0 Copyright (c) Steve Scherf et al.
# Submitted via: CDex 1.70beta2
#
DISCID=ce0f060f
DTITLE=Various Merengue - 30 Merengues Pegaditos - Lo Nuevo y Lo Mejor 2007
DYEAR=1900
DGENRE=Merengue
TTITLE0=Eddy Herrera - Estoy Dolido
TTITLE1=Jeffrey - Palabritas
TTITLE2=La Makina - Yo No Me Muero Por Nadie
TTITLE3=Johnny Ventura - Patacon Pisao
TTITLE4=Team Underground - Marinerito Marineron
TTITLE5=Grupo Mania - Lindah Eh
TTITLE6=Charlie Rodriguez - Los Disenadores
TTITLE7=Team Underground - Tamarindo
TTITLE8=Milly Quezada - La Mala Palabra
TTITLE9=Wilfrido Vargas - El Baile Del Perrito
TTITLE10=Sergio Vargas - Ni Tu Ni Yo
TTITLE11=Charlie Rodriguez - El Guardia Del Arsenal
TTITLE12=Daniel De Leon - Hasta Cuando
TTITLE13=El Gringo de la Bachata - Santo Domingo Querido
TTITLE14=Latin Sound - Nunca
EXTD=
EXTT0=
EXTT1=
EXTT2=
EXTT3=
EXTT4=
EXTT5=
EXTT6=
EXTT7=
EXTT8=
EXTT9=
EXTT10=
EXTT11=
EXTT12=
EXTT13=
EXTT14=
PLAYORDER=
